<?xml version="1.0" encoding="UTF-8"?>
<svg xmlns="http://www.w3.org/2000/svg" xmlns:xlink="http://www.w3.org/1999/xlink" width="121px" height="61px" viewBox="0 0 61 31" version="1.1">
<g id="surface1">
<path style=" stroke:none;fill-rule:nonzero;fill:rgb(7.058824%,30.19608%,10.588235%);fill-opacity:1;" d="M 49.777344 3.0625 C 51.875 4.902344 53.707031 6.609375 54.949219 9.148438 C 54.949219 9.820312 54.949219 10.488281 54.949219 11.179688 C 53.742188 11.25 52.535156 11.300781 51.328125 11.339844 C 50.816406 11.371094 50.816406 11.371094 50.296875 11.402344 C 48.285156 11.453125 47.511719 11.289062 45.96875 9.945312 C 45.605469 9.511719 45.242188 9.082031 44.867188 8.640625 C 42.367188 7.378906 39.964844 7.386719 37.304688 8.132812 C 35.675781 9.035156 34.582031 10.191406 33.585938 11.785156 C 32.949219 14.683594 32.71875 17.597656 34.125 20.296875 C 35.324219 21.898438 36.042969 22.515625 37.808594 23.378906 C 39.410156 23.636719 39.410156 23.636719 41.085938 23.597656 C 41.921875 23.613281 41.921875 23.613281 42.773438 23.628906 C 44.707031 23.324219 45.511719 22.730469 46.882812 21.34375 C 47.546875 20.269531 47.546875 20.269531 47.890625 19.3125 C 47.320312 19.324219 46.75 19.335938 46.164062 19.347656 C 45.417969 19.355469 44.667969 19.367188 43.921875 19.375 C 43.546875 19.382812 43.171875 19.390625 42.78125 19.402344 C 41.796875 19.410156 40.8125 19.363281 39.828125 19.3125 C 38.816406 18.296875 38.816406 18.296875 38.683594 17.34375 C 38.6875 16.984375 38.691406 16.628906 38.691406 16.261719 C 38.691406 15.90625 38.6875 15.550781 38.683594 15.183594 C 38.816406 14.230469 38.816406 14.230469 39.828125 13.214844 C 41.367188 13.089844 41.367188 13.089844 43.324219 13.097656 C 43.84375 13.097656 43.84375 13.097656 44.367188 13.097656 C 45.097656 13.097656 45.824219 13.101562 46.550781 13.109375 C 47.667969 13.117188 48.785156 13.117188 49.902344 13.117188 C 55.378906 13.136719 55.378906 13.136719 55.957031 13.722656 C 56.347656 18.574219 55.171875 22.609375 52.082031 26.394531 C 48.953125 29.683594 45.179688 30.941406 40.738281 31.128906 C 36.339844 31.054688 32.335938 29.640625 29.238281 26.425781 C 25.875 21.75 25.265625 17.941406 25.710938 12.195312 C 26.777344 7.808594 28.96875 4.785156 32.769531 2.382812 C 37.800781 -0.636719 45.03125 -0.476562 49.777344 3.0625 Z M 49.777344 3.0625 "/>
<path style=" stroke:none;fill-rule:nonzero;fill:rgb(0.784314%,1.176471%,0.784314%);fill-opacity:1;" d="M 8.9375 0.4375 C 9.339844 0.4375 9.746094 0.441406 10.160156 0.441406 C 10.574219 0.441406 10.984375 0.441406 11.410156 0.4375 C 12.285156 0.4375 13.15625 0.441406 14.03125 0.441406 C 15.371094 0.445312 16.710938 0.441406 18.050781 0.4375 C 18.898438 0.4375 19.746094 0.441406 20.589844 0.441406 C 20.996094 0.441406 21.398438 0.4375 21.8125 0.4375 C 24.644531 0.449219 24.644531 0.449219 25.207031 1.015625 C 25.207031 2.859375 25.207031 4.707031 25.207031 6.605469 C 21.214844 6.773438 17.222656 6.941406 13.109375 7.113281 C 13.109375 8.792969 13.109375 10.46875 13.109375 12.195312 C 16.765625 12.195312 20.425781 12.195312 24.199219 12.195312 C 24.199219 14.042969 24.199219 15.886719 24.199219 17.785156 C 23.695312 18.296875 23.695312 18.296875 22.617188 18.351562 C 21.925781 18.347656 21.925781 18.347656 21.21875 18.34375 C 20.71875 18.34375 20.222656 18.339844 19.707031 18.339844 C 19.183594 18.335938 18.65625 18.332031 18.117188 18.328125 C 17.589844 18.324219 17.0625 18.320312 16.519531 18.320312 C 15.214844 18.3125 13.910156 18.304688 12.601562 18.296875 C 12.769531 19.972656 12.9375 21.648438 13.109375 23.378906 C 17.101562 23.542969 21.09375 23.710938 25.207031 23.886719 C 25.207031 25.898438 25.207031 27.910156 25.207031 29.984375 C 22.488281 29.996094 19.769531 30.003906 17.050781 30.011719 C 16.125 30.015625 15.199219 30.015625 14.273438 30.023438 C 12.945312 30.027344 11.617188 30.03125 10.289062 30.035156 C 9.664062 30.039062 9.664062 30.039062 9.027344 30.042969 C 8.035156 30.042969 7.042969 30.015625 6.050781 29.984375 C 5.191406 29.117188 5.480469 27.996094 5.480469 26.8125 C 5.480469 26.246094 5.476562 25.675781 5.476562 25.09375 C 5.476562 24.472656 5.476562 23.855469 5.476562 23.21875 C 5.476562 22.589844 5.476562 21.957031 5.476562 21.308594 C 5.476562 19.976562 5.476562 18.640625 5.480469 17.304688 C 5.484375 15.59375 5.480469 13.878906 5.476562 12.164062 C 5.476562 10.535156 5.476562 8.902344 5.476562 7.273438 C 5.476562 6.65625 5.476562 6.035156 5.476562 5.398438 C 5.476562 4.832031 5.480469 4.265625 5.480469 3.679688 C 5.480469 3.175781 5.480469 2.671875 5.480469 2.15625 C 5.609375 -0.117188 7.007812 0.445312 8.9375 0.4375 Z M 8.9375 0.4375 "/>
</g>
</svg>
